<?xml version="1.0" standalone="no"?>
<!DOCTYPE svg PUBLIC "-//W3C//DTD SVG 20010904//EN"
 "http://www.w3.org/TR/2001/REC-SVG-20010904/DTD/svg10.dtd">
<svg version="1.0" xmlns="http://www.w3.org/2000/svg"
 width="128.000000pt" height="128.000000pt" viewBox="0 0 128.000000 128.000000"
 preserveAspectRatio="xMidYMid meet">

<g transform="translate(0.000000,128.000000) scale(0.100000,-0.100000)"
fill="#000000" stroke="none">
<path d="M611 1025 c-56 -135 -175 -275 -296 -347 -30 -18 -55 -36 -55 -39 0
-4 24 -21 54 -38 117 -66 252 -225 302 -358 9 -24 20 -43 23 -43 3 0 17 30 30
66 50 140 165 271 304 344 26 14 47 27 47 30 0 3 -25 20 -55 38 -121 72 -240
212 -296 347 -12 30 -26 55 -29 55 -3 0 -17 -25 -29 -55z m17 -378 c4 -30 0
-32 -29 -17 -27 15 -25 47 4 45 16 -1 23 -9 25 -28z m161 -129 c-33 -65 -69
-77 -69 -24 0 37 9 44 53 45 26 1 27 -1 16 -21z"/>
</g>
</svg>
